<svg xmlns="http://www.w3.org/2000/svg" width="42" height="42" viewBox="0 0 42 42">
  <g id="Group_423" data-name="Group 423" transform="translate(-42 -24)">
    <g id="Component_1_29" data-name="Component 1 – 29" transform="translate(42 24)">
      <path id="Path_360" data-name="Path 360" d="M20.917,0A20.917,20.917,0,1,1,0,20.917,20.917,20.917,0,0,1,20.917,0Z" fill="#bbdefc"/>
    </g>
    <g id="ruler" transform="translate(54.796 36.796)">
      <path id="Path_358" data-name="Path 358" d="M16.091,10.911H5.666V.486A.486.486,0,0,0,5.18,0H.486A.486.486,0,0,0,0,.486V16.091a.486.486,0,0,0,.486.486H16.091a.486.486,0,0,0,.486-.486V11.4A.486.486,0,0,0,16.091,10.911ZM.971.971H4.695V2.363H3.626a.486.486,0,0,0,0,.971H4.695v1.1h-.55a.486.486,0,1,0,0,.971h.55v1.1H3.626a.486.486,0,0,0,0,.971H4.695v1.1h-.55a.486.486,0,1,0,0,.971h.55v1.36H.971Zm0,10.911H4.695v3.723H.971Zm14.634,3.723H5.666V11.882h1.36V12.95a.486.486,0,1,0,.971,0V11.882H9.1v.55a.486.486,0,0,0,.971,0v-.55h1.1V12.95a.486.486,0,0,0,.971,0V11.882h1.1v.55a.486.486,0,0,0,.971,0v-.55h1.392Z" transform="translate(0 0)" fill="#0846a3"/>
      <path id="Path_359" data-name="Path 359" d="M73.976,409.4a.486.486,0,1,0-.335.56A.486.486,0,0,0,73.976,409.4Z" transform="translate(-70.65 -395.767)" fill="#0846a3"/>
    </g>
  </g>
</svg>
